:SAMPLES-PER-SECOND 30
:FULLY-SPECIFIED
:DEGREES
34
root  77.7028 39.0162 -3.96662 157.005 -80.8179 -158.406
RightUpLeg  -6.62725 -16.9649 0.595828
RightLeg  22.0956 1.00573 0.240681
RightFoot  -14.1683 -0.0597921 1.51232
RightToes  0.00048216 0.542163 -0.142577
Spine  9.40252 -2.19344 10.3472
Spine1  9.12529 -1.49693 0.365876
HEad  -5.38248 6.82015 -6.01765
LeftShoulder1  7.26155 -10.7213 -44.4488
LeftArm  -7.95555 1.59246 -40.4038
LeftForeArm  36.119 -21.8523 -3.13269
LeftHand  -0.25398 0.0180481 5.50724
RightShoulder  6.10215 9.63058 40.3044
RightArm  -8.99126 -3.74726 32.4027
RightForeArm  4.9258 10.9754 6.49458
RightHand  -2.36889 7.27153 -21.8814
LeftUpLeg  -2.58102 13.9317 6.71928
LeftLeg  32.9168 11.2471 8.08128
LeftFoot  -14.0933 -0.121299 -8.11696
LeftToes  1.06246e-005 4.65856e-005 -8.18504e-006
35
root  77.1319 38.9133 -4.1912 153.725 -81.3997 -154.964
RightUpLeg  -5.894 -17.6943 0.733363
RightLeg  22.6929 0.868755 0.273549
RightFoot  -15.399 -0.0575948 1.31357
RightToes  0.00048216 0.542163 -0.142577
Spine  9.96341 -2.08606 11.03
Spine1  9.24391 -1.2974 0.924556
HEad  -6.60187 7.31678 -5.99656
LeftShoulder1  7.33921 -10.8543 -44.5118
LeftArm  -8.37044 1.74861 -38.9698
LeftForeArm  34.1518 -21.4961 -3.23097
LeftHand  -0.25398 0.0180481 5.50724
RightShoulder  6.19547 9.87234 40.1697
RightArm  -6.55553 -1.13836 33.2359
RightForeArm  3.06867 12.9625 6.59231
RightHand  -2.3651 7.18663 -21.987
LeftUpLeg  -8.40762 13.3057 6.85919
LeftLeg  43.089 10.0671 10.2635
LeftFoot  -9.01201 0.155626 -5.35735
LeftToes  1.06246e-005 4.65856e-005 -8.18504e-006
36
root  76.4624 38.8477 -4.38699 149.943 -82.4441 -151.032
RightUpLeg  -4.65752 -18.0695 0.376066
RightLeg  22.8377 0.449699 0.393558
RightFoot  -16.721 -0.0224896 1.90341
RightToes  0.00048216 0.542163 -0.142577
Spine  10.1673 -2.13161 11.9491
Spine1  9.51862 -1.10772 0.755581
HEad  -7.72966 7.63152 -6.16987
LeftShoulder1  7.39965 -10.9341 -44.6361
LeftArm  -9.5035 2.3113 -36.7896
LeftForeArm  31.6529 -20.4338 -3.3927
LeftHand  -0.25398 0.0180481 5.50724
RightShoulder  6.2204 9.91422 40.2091
RightArm  -5.13299 1.63721 34.1604
RightForeArm  0.987387 14.6326 6.43465
RightHand  -2.39663 7.37095 -21.9632
LeftUpLeg  -14.0105 12.2584 6.25121
LeftLeg  50.4919 7.47273 10.0322
LeftFoot  -6.15571 0.135986 -1.98143
LeftToes  1.06246e-005 4.65856e-005 -8.18504e-006
37
root  75.6847 38.8698 -4.5645 148.438 -83.6871 -149.182
RightUpLeg  -2.87779 -18.0108 -0.658083
RightLeg  21.8382 -0.288068 0.839907
RightFoot  -17.7078 0.0617297 3.27738
RightToes  0.00048216 0.542163 -0.142577
Spine  10.1481 -1.97935 12.7207
Spine1  9.52354 -0.673254 -0.0854627
HEad  -8.56414 7.73741 -6.70438
LeftShoulder1  7.46558 -10.9917 -44.8648
LeftArm  -10.7861 3.4507 -34.431
LeftForeArm  29.128 -19.089 -3.59405
LeftHand  -0.25398 0.0180481 5.50724
RightShoulder  6.17776 9.84704 40.1274
RightArm  -4.03174 3.82815 35.0739
RightForeArm  -0.785076 16.5209 6.05159
RightHand  -2.44092 7.68642 -21.8399
LeftUpLeg  -18.8646 11.5412 4.86704
LeftLeg  53.9758 5.67962 8.82719
LeftFoot  -6.56247 0.0910548 -1.28499
LeftToes  1.06246e-005 4.65856e-005 -8.18504e-006
38
root  74.8516 38.973 -4.74897 151.327 -84.8654 -151.517
RightUpLeg  -0.950633 -16.8422 -1.90495
RightLeg  19.9632 -2.31398 1.29774
RightFoot  -18.0298 0.104701 3.88566
RightToes  0.00048216 0.542163 -0.142577
Spine  10.3366 -1.4211 13.0981
Spine1  8.87067 0.15497 -1.16979
HEad  -8.89142 7.18476 -7.28459
LeftShoulder1  7.50803 -11.0561 -44.9234
LeftArm  -12.2189 5.19461 -32.3365
LeftForeArm  27.1422 -17.98 -3.71041
LeftHand  -0.25398 0.0180481 5.50724
RightShoulder  6.10427 9.75372 39.9109
RightArm  -2.40048 5.09111 35.693
RightForeArm  -2.56658 19.0615 5.5074
RightHand  -2.41358 7.66342 -21.6412
LeftUpLeg  -22.8048 12.0284 3.01783
LeftLeg  53.383 5.49483 8.35101
LeftFoot  -7.89869 0.123355 -2.51009
LeftToes  1.06246e-005 4.65856e-005 -8.18504e-006
39
root  73.9874 39.1003 -4.93212 156.599 -85.9902 -156.287
RightUpLeg  1.31201 -14.3945 -2.8919
RightLeg  17.3648 -5.65912 1.71684
RightFoot  -17.9571 0.084962 3.57433
RightToes  0.00048216 0.542163 -0.142577
Spine  10.8361 -0.725011 13.3856
Spine1  7.9818 1.17335 -2.50366
HEad  -8.96157 6.00121 -7.47981
LeftShoulder1  7.45004 -11.0301 -44.6438
LeftArm  -13.4799 7.19762 -30.5652
LeftForeArm  26.1556 -17.6392 -3.65473
LeftHand  -0.25398 0.0180481 5.50724
RightShoulder  6.03636 9.66087 39.7296
RightArm  -0.649659 5.69898 35.785
RightForeArm  -4.56549 22.3735 5.23292
RightHand  -2.31512 7.20291 -21.5168
LeftUpLeg  -25.5683 13.3186 0.892608
LeftLeg  49.2073 6.15125 8.01943
LeftFoot  -8.68663 0.11058 -2.47647
LeftToes  1.06246e-005 4.65856e-005 -8.18504e-006
40
root  73.0702 39.166 -5.09171 160.46 -87.3647 -159.764
RightUpLeg  4.05672 -11.6285 -3.50335
RightLeg  14.183 -9.21851 2.27626
RightFoot  -17.9441 0.0893964 3.65396
RightToes  0.00048216 0.542163 -0.142577
Spine  11.4077 -0.233348 13.8348
Spine1  7.3159 2.08338 -4.14083
HEad  -9.06256 3.6101 -6.81249
LeftShoulder1  7.30194 -10.8764 -44.2037
LeftArm  -13.7776 9.00277 -28.8383
LeftForeArm  25.9382 -17.8668 -3.57951
LeftHand  -0.25398 0.0180481 5.50724
RightShoulder  5.99387 9.62302 39.5476
RightArm  -0.136573 5.87121 35.3615
RightForeArm  -5.54418 25.945 5.82657
RightHand  -2.27416 6.85575 -21.7184
LeftUpLeg  -27.2712 14.3208 -1.39271
LeftLeg  42.7916 6.43978 6.75375
LeftFoot  -9.44919 0.0800709 -1.441
LeftToes  1.06246e-005 4.65856e-005 -8.18504e-006
41
root  72.0599 39.0946 -5.22193 158.552 -88.784 -157.429
RightUpLeg  6.34043 -10.1382 -3.7503
RightLeg  12.1578 -11.8752 2.60575
RightFoot  -18.1927 0.112942 3.9481
RightToes  0.00048216 0.542163 -0.142577
Spine  11.9006 0.15 14.6057
Spine1  6.54174 2.96146 -5.90545
HEad  -9.95268 -1.48603 -6.21434
LeftShoulder1  7.16736 -10.7785 -43.6595
LeftArm  -13.134 10.4297 -27.0059
LeftForeArm  25.9484 -17.7075 -3.62596
LeftHand  -0.25398 0.0180481 5.50724
RightShoulder  5.97975 9.69295 39.2156
RightArm  0.444958 5.46989 34.8091
RightForeArm  -5.96704 28.5841 6.50091
RightHand  -2.40857 7.1447 -22.4385
LeftUpLeg  -28.4158 15.1492 -3.58415
LeftLeg  36.5144 6.18513 5.25075
LeftFoot  -10.2192 0.0775541 -1.6764
LeftToes  1.06246e-005 4.65856e-005 -8.18504e-006
42
root  70.9269 38.9282 -5.34116 160.004 -89.5571 -158.505
RightUpLeg  7.63092 -10.4018 -3.96525
RightLeg  12.625 -12.9125 2.24491
RightFoot  -18.6507 0.0904421 3.4085
RightToes  0.00048216 0.542163 -0.142577
Spine  12.2094 0.780799 15.3141
Spine1  5.58913 4.04843 -7.6112
HEad  -9.71157 -3.78911 -4.67746
LeftShoulder1  7.10178 -10.8872 -42.8927
LeftArm  -12.6633 11.5126 -25.2666
LeftForeArm  26.0726 -16.7763 -3.73636
LeftHand  -0.25398 0.0180481 5.50724
RightShoulder  6.00105 9.86879 38.799
RightArm  2.12859 4.4907 34.4667
RightForeArm  -6.19243 28.8554 6.58232
RightHand  -2.62721 7.7375 -23.3473
LeftUpLeg  -28.9617 16.7927 -5.49334
LeftLeg  32.6785 6.21376 4.62142
LeftFoot  -10.101 0.0875839 -2.4847
LeftToes  1.06246e-005 4.65856e-005 -8.18504e-006
43
root  69.6731 38.7291 -5.46334 -162.035 -89.5917 163.658
RightUpLeg  8.76944 -12.6297 -4.83139
RightLeg  14.5423 -10.4997 1.45096
RightFoot  -19.4085 0.137764 3.7452
RightToes  0.00048216 0.542163 -0.142577
Spine  11.9597 1.59893 14.9352
Spine1  5.50664 5.14905 -8.82263
HEad  -9.19646 -5.50187 -3.09699
LeftShoulder1  7.10447 -11.0988 -42.2478
LeftArm  -12.881 12.2047 -23.8177
LeftForeArm  26.2693 -15.8117 -3.77979
LeftHand  -0.25398 0.0180481 5.50724
RightShoulder  6.11834 10.1591 38.7064
RightArm  5.47808 3.14405 34.2795
RightForeArm  -7.15635 26.5705 6.0601
RightHand  -2.65784 7.76381 -23.5569
LeftUpLeg  -28.1349 18.5982 -6.7829
LeftLeg  31.6516 6.43056 4.60545
LeftFoot  -9.44995 0.0908447 -2.13468
LeftToes  1.06246e-005 4.65856e-005 -8.18504e-006
44
root  68.3221 38.5104 -5.5631 -120.378 -89.2764 121.979
RightUpLeg  9.7277 -16.9041 -6.53977
RightLeg  17.7264 -4.15453 0.444348
RightFoot  -19.9244 0.452059 7.83403
RightToes  0.00048216 0.542163 -0.142577
Spine  10.9727 2.15931 13.0085
Spine1  6.68224 5.66239 -9.01415
HEad  -8.74661 -6.39061 -1.6635
LeftShoulder1  7.22017 -11.2957 -42.3731
LeftArm  -13.0039 12.2669 -22.7192
LeftForeArm  26.2319 -15.2652 -3.80487
LeftHand  -0.25398 0.0180481 5.50724
RightShoulder  6.40412 10.5597 39.4252
RightArm  9.75268 1.21675 33.882
RightForeArm  -9.15023 23.1175 5.55313
RightHand  -2.43592 7.06363 -22.8249
LeftUpLeg  -25.5354 18.5749 -7.10471
LeftLeg  31.6698 6.31138 4.533
LeftFoot  -9.99644 0.0698975 -0.55112
LeftToes  1.06246e-005 4.65856e-005 -8.18504e-006
45
root  66.933 38.3554 -5.61339 -89.5732 -88.925 91.1982
RightUpLeg  7.93824 -18.2992 -7.61204
RightLeg  25.3789 -1.25068 -1.22746
RightFoot  -17.3685 0.56543 13.516
RightToes  0.00048216 0.542163 -0.142577
Spine  10.3397 2.12882 10.1929
Spine1  7.62944 5.29277 -8.33124
HEad  -8.74161 -6.51127 -0.279276
LeftShoulder1  7.49023 -11.5579 -43.2464
LeftArm  -12.5817 11.2501 -22.1966
LeftForeArm  26.0839 -14.334 -4.03334
LeftHand  -0.25398 0.0180481 5.50724
RightShoulder  6.76931 10.8931 40.8329
RightArm  12.0075 -1.9145 33.239
RightForeArm  -10.2657 20.006 6.0694
RightHand  -2.27545 6.4313 -22.4723
LeftUpLeg  -22.1272 16.5299 -6.88321
LeftLeg  31.2982 6.64047 4.68636
LeftFoot  -12.5502 0.0900296 1.27233
LeftToes  1.06246e-005 4.65856e-005 -8.18504e-006
46
root  65.6322 38.3112 -5.63244 -76.8893 -88.3688 78.3679
RightUpLeg  1.61649 -14.821 -7.59756
RightLeg  39.233 -4.17667 -3.96498
RightFoot  -8.30339 -0.365725 14.3021
RightToes  0.00048216 0.542163 -0.142577
Spine  11.798 1.64046 7.12725
Spine1  7.03483 4.40746 -7.40758
HEad  -9.75298 -5.98606 1.08276
LeftShoulder1  7.84311 -11.935 -44.2326
LeftArm  -12.0022 8.6753 -22.5278
LeftForeArm  26.2496 -12.4447 -4.53393
LeftHand  -0.25398 0.0180481 5.50724
RightShoulder  6.94951 10.9002 41.9849
RightArm  12.6291 -6.39489 33.0353
RightForeArm  -10.7686 18.1728 6.9816
RightHand  -2.35577 6.31862 -23.4345
LeftUpLeg  -19.2173 14.8276 -6.77486
LeftLeg  31.0769 7.71876 5.34706
LeftFoot  -15.765 0.167609 1.96826
LeftToes  1.06246e-005 4.65856e-005 -8.18504e-006
47
root  64.5262 38.1568 -5.6694 -84.7647 -87.2911 85.7004
RightUpLeg  -7.52218 -11.8721 -8.08925
RightLeg  54.8154 -3.94126 -6.23228
RightFoot  4.11261 -1.09495 8.36798
RightToes  0.00048216 0.542163 -0.142577
Spine  15.4129 1.21888 3.28652
Spine1  5.75191 3.40212 -6.66714
HEad  -12.1645 -5.02782 2.3284
LeftShoulder1  8.16723 -12.3035 -45.0234
LeftArm  -11.342 4.52901 -23.6122
LeftForeArm  26.895 -10.7143 -5.12802
LeftHand  -0.25398 0.0180481 5.50724
RightShoulder  6.85301 10.6023 42.294
RightArm  15.1275 -11.6302 33.4904
RightForeArm  -11.944 18.0288 7.27523
RightHand  -2.4594 6.31186 -24.4389
LeftUpLeg  -17.365 15.1276 -7.26251
LeftLeg  32.4783 8.13236 5.89576
LeftFoot  -18.4359 0.176864 1.10251
LeftToes  1.06246e-005 4.65856e-005 -8.18504e-006
48
root  63.4743 37.8317 -5.70362 -89.435 -86.1035 89.769
RightUpLeg  -16.9486 -9.61835 -8.51006
RightLeg  66.6933 -1.89366 -5.52068
RightFoot  9.94907 -0.421455 2.39102
RightToes  0.00048216 0.542163 -0.142577
Spine  19.2404 0.90613 -0.595783
Spine1  4.97991 2.19758 -5.75284
HEad  -15.5701 -3.7515 3.4437
LeftShoulder1  8.4823 -12.6347 -45.8299
LeftArm  -10.1255 -0.438195 -25.0318
LeftForeArm  28.1718 -10.8427 -5.56206
LeftHand  -0.25398 0.0180481 5.50724
RightShoulder  6.74543 10.3924 42.2572
RightArm  20.6473 -17.4411 33.6214
RightForeArm  -13.3498 19.4214 6.85556
RightHand  -2.39489 6.12683 -24.183
LeftUpLeg  -15.8053 16.0145 -7.79897
LeftLeg  34.6814 7.48328 5.90773
LeftFoot  -20.7059 0.105991 -0.239543
LeftToes  1.06246e-005 4.65856e-005 -8.18504e-006
